<svg width="18" height="18" viewBox="0 0 18 18" fill="none" xmlns="http://www.w3.org/2000/svg">
<path d="M15 0.75V3H17.25V4.5H15V6.75H13.5V4.5H11.25V3H13.5V0.75H15ZM9 9.75C8.175 9.75 7.5 9.075 7.5 8.25C7.5 7.425 8.175 6.75 9 6.75C9.825 6.75 10.5 7.425 10.5 8.25C10.5 9.075 9.825 9.75 9 9.75ZM9.75 2.295V3.81C9.50191 3.7708 9.25117 3.75074 9 3.75C6.4875 3.75 4.5 5.6775 4.5 8.4C4.5 10.155 5.9625 12.48 9 15.255C12.0375 12.48 13.5 10.1625 13.5 8.4V8.25H15V8.4C15 10.89 12.9975 13.8375 9 17.25C5.0025 13.8375 3 10.89 3 8.4C3 4.665 5.85 2.25 9 2.25C9.255 2.25 9.5025 2.265 9.75 2.295V2.295Z" fill="black"/>
</svg>
