<svg width="18" height="18" viewBox="0 0 18 18" fill="none" xmlns="http://www.w3.org/2000/svg">
<path d="M14.5724 9.735C14.6024 9.495 14.6249 9.255 14.6249 9C14.6249 8.745 14.6024 8.505 14.5724 8.265L16.1549 7.0275C16.2974 6.915 16.3349 6.7125 16.2449 6.5475L14.7449 3.9525C14.6774 3.8325 14.5499 3.765 14.4149 3.765C14.3699 3.765 14.3249 3.7725 14.2874 3.7875L12.4199 4.5375C12.0299 4.2375 11.6099 3.99 11.1524 3.8025L10.8674 1.815C10.8449 1.635 10.6874 1.5 10.4999 1.5H7.49988C7.31238 1.5 7.15488 1.635 7.13238 1.815L6.84738 3.8025C6.38988 3.99 5.96988 4.245 5.57988 4.5375L3.71238 3.7875C3.66738 3.7725 3.62238 3.765 3.57738 3.765C3.44988 3.765 3.32238 3.8325 3.25488 3.9525L1.75488 6.5475C1.65738 6.7125 1.70238 6.915 1.84488 7.0275L3.42738 8.265C3.39738 8.505 3.37488 8.7525 3.37488 9C3.37488 9.2475 3.39738 9.495 3.42738 9.735L1.84488 10.9725C1.70238 11.085 1.66488 11.2875 1.75488 11.4525L3.25488 14.0475C3.32238 14.1675 3.44988 14.235 3.58488 14.235C3.62988 14.235 3.67488 14.2275 3.71238 14.2125L5.57988 13.4625C5.96988 13.7625 6.38988 14.01 6.84738 14.1975L7.13238 16.185C7.15488 16.365 7.31238 16.5 7.49988 16.5H10.4999C10.6874 16.5 10.8449 16.365 10.8674 16.185L11.1524 14.1975C11.6099 14.01 12.0299 13.755 12.4199 13.4625L14.2874 14.2125C14.3324 14.2275 14.3774 14.235 14.4224 14.235C14.5499 14.235 14.6774 14.1675 14.7449 14.0475L16.2449 11.4525C16.3349 11.2875 16.2974 11.085 16.1549 10.9725L14.5724 9.735V9.735ZM13.0874 8.4525C13.1174 8.685 13.1249 8.8425 13.1249 9C13.1249 9.1575 13.1099 9.3225 13.0874 9.5475L12.9824 10.395L13.6499 10.92L14.4599 11.55L13.9349 12.4575L12.9824 12.075L12.2024 11.76L11.5274 12.27C11.2049 12.51 10.8974 12.69 10.5899 12.8175L9.79488 13.14L9.67488 13.9875L9.52488 15H8.47488L8.33238 13.9875L8.21238 13.14L7.41738 12.8175C7.09488 12.6825 6.79488 12.51 6.49488 12.285L5.81238 11.76L5.01738 12.0825L4.06488 12.465L3.53988 11.5575L4.34988 10.9275L5.01738 10.4025L4.91238 9.555C4.88988 9.3225 4.87488 9.15 4.87488 9C4.87488 8.85 4.88988 8.6775 4.91238 8.4525L5.01738 7.605L4.34988 7.08L3.53988 6.45L4.06488 5.5425L5.01738 5.925L5.79738 6.24L6.47238 5.73C6.79488 5.49 7.10238 5.31 7.40988 5.1825L8.20488 4.86L8.32488 4.0125L8.47488 3H9.51738L9.65988 4.0125L9.77988 4.86L10.5749 5.1825C10.8974 5.3175 11.1974 5.49 11.4974 5.715L12.1799 6.24L12.9749 5.9175L13.9274 5.535L14.4524 6.4425L13.6499 7.08L12.9824 7.605L13.0874 8.4525ZM8.99988 6C7.34238 6 5.99988 7.3425 5.99988 9C5.99988 10.6575 7.34238 12 8.99988 12C10.6574 12 11.9999 10.6575 11.9999 9C11.9999 7.3425 10.6574 6 8.99988 6ZM8.99988 10.5C8.17488 10.5 7.49988 9.825 7.49988 9C7.49988 8.175 8.17488 7.5 8.99988 7.5C9.82488 7.5 10.4999 8.175 10.4999 9C10.4999 9.825 9.82488 10.5 8.99988 10.5Z" fill="black"/>
</svg>
